# File created by Blade
# Date/Time:  Wed Jan 21 16:02:01 2015
# Frame Rate: 120.000 fps
#------------------------------------------------------
:FULLY-SPECIFIED
:DEGREES
718
root 19.520678 32.640916 -17.753949 -171.235887 4.143425 -179.029679
Spine -20.917263 6.918874 -2.897289
Head 14.270597 -2.584398 -5.193145
LeftShoulder -13.026105 -29.129668 -5.333261
LeftArm -42.832004 -8.072983 -47.610989
LeftForeArm 0.938222 0.000000 7.661410
LeftHand -1.783670 -0.000000 2.633925
LeftHandThumb1 -26.253704 0.000000 33.147579
RightShoulder -8.547667 17.194301 -47.538991
RightArm 43.509853 48.727918 -7.014280
RightForeArm -39.747652 -0.000000 7.577106
RightHand -0.580040 -0.000000 -18.482268
RightHandThumb1 -24.326973 -0.000000 -32.862282
LeftUpLeg 12.200463 2.282369 -18.581230
LeftLeg -2.294006 -0.000000 0.000000
LeftFoot -33.691363 19.582715 -14.904379
LeftToeBase 17.209964 -0.000000 -0.000000
RightUpLeg -19.178472 11.462329 21.106418
RightLeg -3.186269 -0.000000 0.000000
RightFoot -0.890553 -31.595262 -3.699662
RightToeBase 21.295988 -0.000000 -0.000000
719
root 19.516108 32.640484 -17.753921 -171.250977 4.149550 -179.004247
Spine -20.932078 6.932026 -2.853417
Head 14.237551 -2.588325 -5.239907
LeftShoulder -13.040737 -29.113969 -5.353479
LeftArm -42.854616 -8.084786 -47.602164
LeftForeArm 0.923605 -0.000000 7.597687
LeftHand -1.801497 -0.000000 2.577506
LeftHandThumb1 -26.253704 0.000000 33.147579
RightShoulder -8.570127 17.197252 -47.560201
RightArm 43.546631 48.750285 -7.034849
RightForeArm -39.767786 -0.000000 7.572327
RightHand -0.679178 0.000000 -18.523130
RightHandThumb1 -24.326973 -0.000000 -32.862282
LeftUpLeg 12.194228 2.291448 -18.562335
LeftLeg -2.254178 -0.000000 0.000000
LeftFoot -33.744436 19.582803 -14.908379
LeftToeBase 17.365731 -0.000000 -0.000000
RightUpLeg -19.161319 11.496683 21.112530
RightLeg -3.183411 -0.000000 0.000000
RightFoot -0.925627 -31.641348 -3.665412
RightToeBase 21.146337 -0.000000 -0.000000
720
root 19.510406 32.639941 -17.754259 -171.268111 4.175724 -178.975946
Spine -20.939280 6.971632 -2.815334
Head 14.188231 -2.607336 -5.277383
LeftShoulder -13.034907 -29.099645 -5.385710
LeftArm -42.903843 -8.126499 -47.566315
LeftForeArm 0.948742 -0.000000 7.601880
LeftHand -1.879479 -0.000000 2.518744
LeftHandThumb1 -26.253704 0.000000 33.147579
RightShoulder -8.579701 17.264972 -47.577948
RightArm 43.561472 48.736542 -7.066614
RightForeArm -39.778699 -0.000000 7.573293
RightHand -0.703464 -0.000000 -18.656642
RightHandThumb1 -24.326973 -0.000000 -32.862282
LeftUpLeg 12.193165 2.302143 -18.554209
LeftLeg -2.230714 -0.000000 0.000000
LeftFoot -33.784966 19.602638 -14.938387
LeftToeBase 17.407110 -0.000000 -0.000000
RightUpLeg -19.131203 11.553571 21.116804
RightLeg -3.190715 -0.000000 0.000000
RightFoot -0.954420 -31.696010 -3.651295
RightToeBase 20.977293 -0.000000 -0.000000
721
root 19.505672 32.639406 -17.754148 -171.284695 4.195018 -178.944662
Spine -20.942059 7.007285 -2.780111
Head 14.138601 -2.605750 -5.300214
LeftShoulder -13.034079 -29.088452 -5.419303
LeftArm -42.923739 -8.156399 -47.525327
LeftForeArm 0.989390 -0.000000 7.574002
LeftHand -1.856881 -0.000000 2.392706
LeftHandThumb1 -26.253704 0.000000 33.147579
RightShoulder -8.604621 17.253211 -47.566024
RightArm 43.553905 48.779199 -7.153476
RightForeArm -39.757111 -0.000000 7.569773
RightHand -0.731006 -0.000000 -18.659778
RightHandThumb1 -24.326973 -0.000000 -32.862282
LeftUpLeg 12.187467 2.305996 -18.540257
LeftLeg -2.197894 -0.000000 0.000000
LeftFoot -33.843957 19.624275 -14.978115
LeftToeBase 17.439257 -0.000000 -0.000000
RightUpLeg -19.104620 11.590299 21.131564
RightLeg -3.197244 -0.000000 0.000000
RightFoot -1.014921 -31.767526 -3.595671
RightToeBase 20.741697 -0.000000 -0.000000
722
root 19.501343 32.638888 -17.753083 -171.287819 4.209182 -178.925796
Spine -20.958142 7.016483 -2.760081
Head 14.058115 -2.623003 -5.325172
LeftShoulder -13.038650 -29.102859 -5.413567
LeftArm -42.982202 -8.028987 -47.649475
LeftForeArm 0.798149 -0.000000 7.608977
LeftHand -1.893967 -0.000000 2.465338
LeftHandThumb1 -26.253704 0.000000 33.147579
RightShoulder -8.641553 17.255470 -47.561985
RightArm 43.604822 48.823923 -7.162677
RightForeArm -39.746983 -0.000000 7.542907
RightHand -0.660882 -0.000000 -18.793599
RightHandThumb1 -24.326973 -0.000000 -32.862282
LeftUpLeg 12.164846 2.304626 -18.534568
LeftLeg -2.154848 -0.000000 0.000000
LeftFoot -33.897527 19.615162 -15.037063
LeftToeBase 17.396788 -0.000000 -0.000000
RightUpLeg -19.092788 11.628081 21.133163
RightLeg -3.207226 -0.000000 0.000000
RightFoot -1.053605 -31.816149 -3.556843
RightToeBase 20.449527 -0.000000 -0.000000
723
root 19.496713 32.638208 -17.752417 -171.290993 4.234859 -178.903618
Spine -20.972287 7.033103 -2.735967
Head 14.006068 -2.614932 -5.325107
LeftShoulder -13.059019 -29.094308 -5.416638
LeftArm -42.992761 -7.981915 -47.703991
LeftForeArm 0.728353 -0.000000 7.595326
LeftHand -1.888013 -0.000000 2.484658
LeftHandThumb1 -26.253704 0.000000 33.147579
RightShoulder -8.658258 17.287438 -47.564883
RightArm 43.589131 48.825104 -7.233093
RightForeArm -39.725989 0.000000 7.549265
RightHand -0.638755 -0.000000 -18.904620
RightHandThumb1 -24.326973 -0.000000 -32.862282
LeftUpLeg 12.146872 2.309557 -18.526264
LeftLeg -2.120455 -0.000000 0.000000
LeftFoot -33.947409 19.620596 -15.052070
LeftToeBase 17.489952 -0.000000 -0.000000
RightUpLeg -19.076448 11.693254 21.129656
RightLeg -3.218342 -0.000000 0.000000
RightFoot -1.087957 -31.882632 -3.531082
RightToeBase 20.235025 -0.000000 -0.000000
